<?xml version="1.0" standalone="no"?>
<!DOCTYPE svg PUBLIC "-//W3C//DTD SVG 20010904//EN"
 "http://www.w3.org/TR/2001/REC-SVG-20010904/DTD/svg10.dtd">
<svg version="1.0" xmlns="http://www.w3.org/2000/svg"
 width="1280.000000pt" height="1280.000000pt" viewBox="0 0 1280.000000 1280.000000"
 preserveAspectRatio="xMidYMid meet">
<metadata>
Created by potrace 1.16, written by Peter Selinger 2001-2019
</metadata>
<g transform="translate(0.000000,1280.000000) scale(0.100000,-0.100000)"
fill="#000000" stroke="none">
<path d="M3468 10093 c-316 -304 -425 -402 -493 -443 -219 -133 -332 -229
-690 -586 -334 -333 -538 -527 -965 -919 -700 -643 -1149 -1095 -1214 -1222
-9 -18 -13 -33 -9 -32 5 0 49 45 98 100 120 132 1009 1017 1155 1149 232 210
219 189 -50 -86 -389 -396 -727 -757 -871 -932 l-35 -44 -32 27 c-36 30 -42
21 -12 -18 11 -14 20 -28 20 -31 0 -4 -16 -29 -37 -56 l-36 -49 -34 26 c-45
34 -53 22 -17 -25 29 -37 30 -37 12 -71 -22 -44 -15 -51 18 -20 l25 24 47 -55
c158 -185 366 -405 737 -780 406 -410 513 -526 550 -599 17 -35 17 -35 -51 19
-435 342 -764 612 -1060 872 -110 96 -244 211 -298 257 -100 84 -215 165 -224
157 -2 -3 48 -60 111 -128 64 -68 126 -136 139 -153 22 -29 21 -29 -30 9 -29
21 -55 36 -58 33 -3 -3 30 -47 73 -98 42 -52 66 -87 53 -78 -14 9 -59 38 -100
64 -41 27 -90 61 -108 77 -33 28 -52 29 -52 3 0 -7 15 -19 34 -25 42 -13 85
-60 246 -260 68 -85 136 -164 150 -175 310 -245 1032 -931 1435 -1365 602
-648 1070 -1257 1468 -1909 l76 -124 -19 -25 c-22 -27 -25 -42 -10 -42 5 0 96
79 202 176 106 97 243 214 303 259 61 45 128 101 149 124 l40 41 23 -40 c13
-22 27 -40 30 -40 6 0 -2 56 -13 98 -4 15 -2 22 8 22 8 0 18 12 24 27 l9 28
18 -38 c10 -20 24 -37 32 -37 19 0 19 16 1 23 -11 4 -15 35 -19 129 -3 68 -12
155 -22 193 -26 109 -32 437 -11 590 44 318 144 632 302 947 50 99 56 107 86
112 30 5 270 14 1238 48 488 17 1949 17 2102 0 64 -7 129 -17 145 -22 24 -7
22 -8 -22 -9 -237 -5 -1779 -100 -2350 -146 -599 -48 -1098 -109 -1185 -144
-24 -9 -23 -10 10 -10 20 -1 116 5 215 13 99 8 248 17 330 20 l150 5 -107 -18
c-60 -10 -111 -21 -115 -24 -3 -4 88 -5 203 -2 l209 5 -150 -30 c-82 -16 -188
-34 -235 -40 -95 -12 -110 -15 -110 -29 0 -17 41 -19 72 -4 50 25 264 35 618
28 194 -3 363 -2 420 4 384 41 1030 64 1760 64 1134 0 2191 -57 3380 -184 157
-16 311 -32 342 -36 l57 -6 3 -86 3 -86 45 -7 c25 -3 219 -35 431 -69 l386
-63 13 -33 c6 -19 17 -32 23 -30 14 4 21 73 36 327 10 164 27 266 49 293 12
15 7 279 -6 304 -26 49 -37 217 -36 558 0 298 4 378 23 535 39 321 98 630 176
913 60 219 76 267 91 267 8 0 14 4 14 9 0 5 -42 11 -94 13 -52 1 -97 6 -101
10 -4 4 0 38 9 77 17 74 20 150 10 248 l-7 61 -81 16 c-183 35 -572 82 -1086
131 -151 15 -351 39 -445 55 -227 39 -482 67 -732 82 -161 9 -391 9 -1042 -1
-2467 -36 -4333 -94 -4796 -151 -50 -6 -72 -5 -77 3 -12 20 -48 179 -58 257
-12 99 -12 303 0 415 42 372 185 771 415 1159 64 106 72 116 100 117 25 0 27
2 10 8 -19 8 -542 25 -668 22 -64 -1 -82 6 -224 92 -72 44 -280 137 -304 137
-4 0 -76 -66 -161 -147z m287 -1413 c29 -488 73 -889 110 -1015 16 -52 31 -83
38 -75 2 3 -11 99 -29 213 -47 293 -84 596 -83 675 1 60 4 48 34 -123 42 -236
99 -495 131 -594 25 -81 64 -154 71 -134 2 6 -5 76 -16 155 -38 272 -45 344
-45 528 -1 160 2 190 18 225 l18 40 39 -185 c81 -386 158 -635 217 -702 28
-32 31 -19 11 49 -25 87 -25 120 -1 78 l17 -30 5 49 5 50 26 -40 c14 -21 28
-47 32 -56 3 -10 13 -18 22 -18 20 0 19 9 -2 33 -13 14 -19 40 -21 96 -1 42 1
81 5 88 19 27 2669 145 3188 142 88 -1 153 -3 145 -5 -8 -1 -118 -8 -245 -14
-1084 -52 -2262 -132 -2720 -185 -307 -36 -428 -70 -215 -61 1270 56 1486 64
2080 72 286 4 541 2 686 -5 221 -10 391 -28 380 -39 -3 -2 -205 -17 -448 -33
-1475 -93 -2466 -193 -2622 -264 -30 -14 -30 -15 29 -10 33 3 137 12 230 20
94 8 204 14 245 14 l75 -1 -90 -17 -90 -16 180 -5 c99 -3 169 -7 155 -8 -14
-1 -74 -14 -135 -28 -60 -14 -143 -29 -184 -34 -81 -10 -91 -14 -73 -32 9 -9
25 -7 69 8 53 17 91 19 448 21 261 1 450 6 570 17 1349 118 3168 42 4870 -205
575 -83 1319 -211 1339 -230 6 -5 -1 -52 -17 -121 -49 -208 -52 -266 -38 -761
6 -249 16 -561 22 -695 6 -134 8 -246 5 -249 -3 -4 -6 19 -6 50 0 31 -3 57 -7
57 -5 0 -99 13 -211 30 -662 97 -967 107 -2652 80 -3064 -47 -4557 -93 -5094
-156 -97 -12 -78 -27 25 -20 100 7 977 45 1624 71 900 36 1234 46 1670 50
l460 4 -280 -14 c-154 -8 -514 -26 -800 -40 -939 -47 -1722 -95 -2105 -131
-181 -17 -273 -18 -642 -8 l-248 7 -24 -54 c-14 -30 -41 -112 -61 -184 -20
-71 -47 -155 -60 -185 -60 -144 -60 -144 -58 -430 1 -146 6 -330 11 -410 5
-80 9 -146 7 -148 -6 -7 -190 216 -253 308 -165 243 -314 394 -682 695 -883
720 -1438 1214 -1864 1661 -110 115 -226 237 -259 270 l-59 62 72 73 c69 71
78 75 37 16 -33 -48 -9 -43 46 9 101 96 103 96 56 9 -23 -44 -53 -93 -66 -108
-28 -35 -29 -47 -3 -47 13 0 20 7 20 20 0 30 75 106 225 230 72 60 167 150
212 202 44 51 161 172 259 268 407 400 864 754 1945 1508 135 94 256 180 270
191 l24 19 7 -136 c4 -75 14 -256 23 -402z m-2212 -727 c-407 -427 -692 -749
-868 -981 l-78 -104 -81 81 -81 81 140 141 c156 156 472 455 640 604 240 213
481 390 504 369 2 -2 -77 -88 -176 -191z m-985 -1114 c11 -14 9 -24 -9 -58
l-21 -41 -99 93 -98 92 40 41 41 42 67 -77 c36 -42 72 -83 79 -92z m229 -249
c25 -35 433 -420 723 -681 162 -146 304 -277 315 -289 37 -44 -502 400 -760
626 -231 203 -515 468 -515 481 0 4 12 19 26 34 l26 28 87 -91 c47 -50 92 -99
98 -108z m11568 -1093 c15 -142 25 -260 23 -263 -3 -2 -19 -1 -35 2 -24 5 -32
13 -37 36 -8 41 -7 420 1 488 6 50 8 52 14 25 4 -16 19 -146 34 -288z m-8379
-1802 c14 -77 28 -151 31 -165 4 -18 -11 -4 -51 45 l-58 70 6 95 c3 52 11 113
18 135 l12 40 8 -40 c4 -22 19 -103 34 -180z"/>
</g>
</svg>
